<?xml version="1.0" standalone="no"?>
<!DOCTYPE svg PUBLIC "-//W3C//DTD SVG 20010904//EN"
 "http://www.w3.org/TR/2001/REC-SVG-20010904/DTD/svg10.dtd">
<svg version="1.0" xmlns="http://www.w3.org/2000/svg"
 width="224.000000pt" height="223.000000pt" viewBox="0 0 224.000000 223.000000"
 preserveAspectRatio="xMidYMid meet">

<g transform="translate(0.000000,223.000000) scale(0.100000,-0.100000)"
fill="#000000" stroke="none">
<path d="M1070 1950 c-132 -12 -267 -46 -350 -87 -90 -46 -190 -138 -190 -176
0 -13 -7 -30 -15 -37 -23 -19 -7 -31 32 -24 33 6 35 5 28 -12 -25 -61 -38
-108 -49 -184 -10 -73 -15 -85 -33 -88 -18 -3 -21 -12 -27 -85 -8 -94 -23
-171 -25 -125 -1 36 -21 47 -21 12 0 -41 -21 -154 -29 -154 -3 0 -15 15 -25
34 -15 29 -18 51 -14 140 2 58 0 106 -4 106 -4 0 -18 -4 -32 -10 -25 -9 -26
-13 -26 -93 0 -46 5 -88 10 -93 25 -25 -17 -62 -49 -44 -15 8 -17 20 -13 92 4
74 3 81 -11 68 -22 -22 -47 -115 -47 -174 1 -113 33 -183 98 -211 21 -10 45
-30 54 -46 33 -58 162 -87 211 -48 15 11 27 29 27 40 0 10 6 19 13 19 16 0 38
-45 60 -120 29 -101 100 -187 218 -266 148 -99 332 -99 493 -1 107 65 182 155
215 259 20 61 36 66 60 19 25 -49 31 -53 90 -57 59 -4 109 12 141 46 14 15 39
30 55 34 82 20 135 115 135 244 0 67 -17 152 -30 152 -12 0 -24 -104 -16 -134
7 -29 -22 -51 -54 -41 -21 7 -28 51 -10 57 10 3 30 101 30 151 0 28 -24 39
-33 15 -3 -8 -9 -3 -14 11 -8 20 -12 3 -23 -84 -9 -75 -20 -119 -34 -141 -12
-18 -24 -33 -28 -34 -14 0 -19 66 -16 207 4 168 -13 196 -24 43 -15 -204 -26
-174 -27 73 -1 141 -6 256 -12 283 -11 43 -10 47 16 74 21 22 25 33 20 52 -13
39 -50 90 -101 139 -152 146 -387 221 -624 199z m-100 -591 c0 -68 -3 -90 -12
-86 -8 3 -12 20 -11 48 2 56 13 129 19 129 2 0 4 -41 4 -91z m116 -109 c8 -7
14 -18 14 -26 0 -7 16 -16 38 -19 20 -3 68 -13 106 -21 38 -7 105 -14 150 -14
137 0 117 -16 -31 -25 -230 -14 -278 -12 -388 19 -73 20 -133 29 -222 33 -120
6 -146 14 -81 27 18 3 42 16 55 28 13 12 26 18 30 14 4 -3 -3 -13 -15 -22 -26
-18 -30 -38 -4 -26 15 7 229 7 276 0 16 -2 23 7 35 45 13 38 17 43 19 23 2
-14 10 -30 18 -36z m523 -116 c3 -4 -5 -4 -19 -1 -14 4 -36 7 -50 7 -18 0 -21
3 -11 9 13 9 68 -2 80 -15z m-725 -5 c42 -5 93 -18 114 -27 36 -16 36 -16 10
-20 -15 -2 -42 5 -60 15 -23 12 -54 17 -103 17 -80 -1 -132 -15 -163 -45 -22
-20 -22 -20 -22 0 0 11 4 31 10 45 9 24 14 26 74 26 36 0 99 -5 140 -11z m688
-69 c10 -12 18 -36 18 -52 l0 -30 -31 31 c-53 54 -162 75 -281 56 -32 -5 -48
-4 -48 3 0 18 30 21 179 18 136 -3 146 -5 163 -26z m-427 10 c8 -13 -5 -13
-25 0 -13 8 -13 10 2 10 9 0 20 -4 23 -10z m-290 -20 c0 -8 -8 -16 -17 -18
-13 -2 -18 3 -18 18 0 15 5 20 18 18 9 -2 17 -10 17 -18z m139 -35 c14 -27 16
-28 16 -7 0 15 6 22 20 23 11 1 35 3 53 5 60 6 67 5 96 -15 16 -12 34 -21 41
-21 7 0 9 -8 5 -22 -5 -17 0 -14 19 12 32 42 64 63 51 34 -12 -26 -11 -82 1
-94 7 -7 38 -8 82 -4 l71 7 8 36 9 36 24 -27 c29 -35 42 -36 30 -3 -14 36 1
31 41 -13 33 -37 34 -40 32 -118 -3 -166 -87 -312 -245 -431 -96 -72 -143 -88
-253 -88 -82 0 -97 3 -156 32 -134 66 -281 255 -309 398 -6 33 -16 78 -21 101
-5 23 -6 77 -2 122 5 75 7 80 24 69 17 -10 17 -14 4 -34 -20 -30 -20 -57 1
-49 9 3 20 6 25 6 5 0 9 7 9 15 0 8 14 29 31 47 23 26 28 28 19 10 -16 -33 -4
-40 23 -14 31 30 44 28 39 -6 -5 -37 10 -48 86 -59 75 -12 87 -2 86 64 -1 36
1 42 12 31 7 -7 20 -26 28 -43z m362 4 c10 -17 -13 -36 -27 -22 -12 12 -4 33
11 33 5 0 12 -5 16 -11z m264 -65 c0 -8 -6 -11 -15 -8 -8 4 -15 9 -15 13 0 4
7 8 15 8 8 0 15 -6 15 -13z"/>
<path d="M1016 755 c22 -65 111 -86 159 -39 8 9 15 22 15 30 0 10 -5 9 -20 -6
-34 -34 -114 -23 -148 19 -10 14 -11 13 -6 -4z"/>
<path d="M850 666 c0 -22 48 -101 76 -126 58 -51 110 -71 183 -73 56 -1 74 3
120 28 52 28 111 93 111 121 0 9 -42 14 -167 17 -154 5 -248 14 -302 32 -12 3
-21 4 -21 1z m290 -67 c33 -6 23 -7 -40 -4 -47 3 -98 9 -115 14 -35 11 81 4
155 -10z"/>
<path d="M440 1486 c0 -11 -9 -12 -46 -4 -53 12 -62 7 -41 -22 13 -19 13 -25
1 -48 -7 -14 -11 -28 -9 -30 6 -7 65 19 65 28 0 4 9 17 20 30 18 21 28 60 15
60 -3 0 -5 -6 -5 -14z"/>
<path d="M1840 1370 c0 -11 6 -23 14 -26 8 -3 17 -16 20 -28 6 -24 53 -62 63
-52 4 3 1 17 -5 32 -10 20 -9 30 3 47 22 31 19 37 -14 27 -21 -6 -35 -4 -48 6
-25 19 -33 17 -33 -6z"/>
<path d="M451 1304 c0 -11 3 -14 6 -6 3 7 2 16 -1 19 -3 4 -6 -2 -5 -13z"/>
</g>
</svg>
