<svg width="54" height="12" viewBox="0 0 54 12" fill="none" xmlns="http://www.w3.org/2000/svg">
<path d="M8.616 7.9H4.066L3.198 10H0.874L5.242 0.199999H7.482L11.864 10H9.484L8.616 7.9ZM7.902 6.178L6.348 2.426L4.794 6.178H7.902ZM21.8688 0.199999V10H20.0068L15.1208 4.05V10H12.8808V0.199999H14.7568L19.6287 6.15V0.199999H21.8688ZM27.4074 10.168C26.6327 10.168 25.8814 10.0653 25.1534 9.86C24.4347 9.64533 23.8561 9.37 23.4174 9.034L24.1874 7.326C24.6074 7.634 25.1067 7.88133 25.6854 8.068C26.2641 8.25467 26.8427 8.348 27.4214 8.348C28.0654 8.348 28.5414 8.25467 28.8494 8.068C29.1574 7.872 29.3114 7.61533 29.3114 7.298C29.3114 7.06467 29.2181 6.87333 29.0314 6.724C28.8541 6.56533 28.6207 6.43933 28.3314 6.346C28.0514 6.25267 27.6687 6.15 27.1834 6.038C26.4367 5.86067 25.8254 5.68333 25.3494 5.506C24.8734 5.32867 24.4627 5.044 24.1174 4.652C23.7814 4.26 23.6134 3.73733 23.6134 3.084C23.6134 2.51467 23.7674 2.00133 24.0754 1.544C24.3834 1.07733 24.8454 0.708666 25.4614 0.438C26.0867 0.167333 26.8474 0.0319998 27.7434 0.0319998C28.3687 0.0319998 28.9801 0.106666 29.5774 0.255999C30.1747 0.405333 30.6974 0.62 31.1454 0.899999L30.4454 2.622C29.5401 2.10867 28.6347 1.852 27.7294 1.852C27.0947 1.852 26.6234 1.95467 26.3154 2.16C26.0167 2.36533 25.8674 2.636 25.8674 2.972C25.8674 3.308 26.0401 3.56 26.3854 3.728C26.7401 3.88667 27.2767 4.04533 27.9954 4.204C28.7421 4.38133 29.3534 4.55867 29.8294 4.736C30.3054 4.91333 30.7114 5.19333 31.0474 5.576C31.3927 5.95867 31.5654 6.47667 31.5654 7.13C31.5654 7.69 31.4067 8.20333 31.0894 8.67C30.7814 9.12733 30.3147 9.49133 29.6894 9.762C29.0641 10.0327 28.3034 10.168 27.4074 10.168Z" fill="#1F71EC"/>
<path d="M37.814 5.266C38.252 5.266 38.648 5.368 39.002 5.572C39.356 5.77 39.632 6.052 39.83 6.418C40.034 6.778 40.136 7.189 40.136 7.651C40.136 8.113 40.034 8.524 39.83 8.884C39.632 9.244 39.356 9.526 39.002 9.73C38.648 9.934 38.252 10.036 37.814 10.036C37.394 10.036 37.013 9.937 36.671 9.739C36.335 9.535 36.074 9.253 35.888 8.893V10H35.456V3.322H35.906V6.373C36.092 6.025 36.353 5.755 36.689 5.563C37.025 5.365 37.4 5.266 37.814 5.266ZM37.787 9.631C38.147 9.631 38.471 9.547 38.759 9.379C39.047 9.211 39.272 8.977 39.434 8.677C39.602 8.377 39.686 8.035 39.686 7.651C39.686 7.267 39.602 6.925 39.434 6.625C39.272 6.325 39.047 6.091 38.759 5.923C38.471 5.755 38.147 5.671 37.787 5.671C37.427 5.671 37.103 5.755 36.815 5.923C36.533 6.091 36.308 6.325 36.14 6.625C35.978 6.925 35.897 7.267 35.897 7.651C35.897 8.035 35.978 8.377 36.14 8.677C36.308 8.977 36.533 9.211 36.815 9.379C37.103 9.547 37.427 9.631 37.787 9.631ZM41.5292 3.322H41.9792V10H41.5292V3.322ZM45.7119 10.036C45.2679 10.036 44.8659 9.934 44.5059 9.73C44.1519 9.526 43.8729 9.244 43.6689 8.884C43.4649 8.518 43.3629 8.107 43.3629 7.651C43.3629 7.195 43.4649 6.787 43.6689 6.427C43.8729 6.061 44.1519 5.776 44.5059 5.572C44.8659 5.368 45.2679 5.266 45.7119 5.266C46.1559 5.266 46.5549 5.368 46.9089 5.572C47.2689 5.776 47.5509 6.061 47.7549 6.427C47.9589 6.787 48.0609 7.195 48.0609 7.651C48.0609 8.107 47.9589 8.518 47.7549 8.884C47.5509 9.244 47.2689 9.526 46.9089 9.73C46.5549 9.934 46.1559 10.036 45.7119 10.036ZM45.7119 9.631C46.0719 9.631 46.3929 9.547 46.6749 9.379C46.9629 9.211 47.1879 8.977 47.3499 8.677C47.5179 8.377 47.6019 8.035 47.6019 7.651C47.6019 7.267 47.5179 6.925 47.3499 6.625C47.1879 6.325 46.9629 6.091 46.6749 5.923C46.3929 5.755 46.0719 5.671 45.7119 5.671C45.3519 5.671 45.0279 5.755 44.7399 5.923C44.4579 6.091 44.2329 6.325 44.0649 6.625C43.9029 6.925 43.8219 7.267 43.8219 7.651C43.8219 8.035 43.9029 8.377 44.0649 8.677C44.2329 8.977 44.4579 9.211 44.7399 9.379C45.0279 9.547 45.3519 9.631 45.7119 9.631ZM53.6869 5.302V9.496C53.6869 10.276 53.4979 10.852 53.1199 11.224C52.7419 11.596 52.1719 11.782 51.4099 11.782C50.9779 11.782 50.5699 11.716 50.1859 11.584C49.8019 11.452 49.4929 11.269 49.2589 11.035L49.5019 10.693C49.7359 10.909 50.0179 11.077 50.3479 11.197C50.6779 11.317 51.0289 11.377 51.4009 11.377C52.0249 11.377 52.4869 11.227 52.7869 10.927C53.0869 10.633 53.2369 10.174 53.2369 9.55V8.758C53.0449 9.1 52.7779 9.364 52.4359 9.55C52.0939 9.736 51.7099 9.829 51.2839 9.829C50.8459 9.829 50.4469 9.733 50.0869 9.541C49.7329 9.343 49.4539 9.07 49.2499 8.722C49.0459 8.374 48.9439 7.981 48.9439 7.543C48.9439 7.105 49.0459 6.712 49.2499 6.364C49.4539 6.016 49.7329 5.746 50.0869 5.554C50.4469 5.362 50.8459 5.266 51.2839 5.266C51.7159 5.266 52.1059 5.362 52.4539 5.554C52.8019 5.746 53.0689 6.016 53.2549 6.364V5.302H53.6869ZM51.3199 9.424C51.6859 9.424 52.0159 9.346 52.3099 9.19C52.6039 9.028 52.8319 8.806 52.9939 8.524C53.1619 8.236 53.2459 7.909 53.2459 7.543C53.2459 7.177 53.1619 6.853 52.9939 6.571C52.8319 6.289 52.6039 6.07 52.3099 5.914C52.0159 5.752 51.6859 5.671 51.3199 5.671C50.9539 5.671 50.6239 5.752 50.3299 5.914C50.0419 6.07 49.8139 6.289 49.6459 6.571C49.4839 6.853 49.4029 7.177 49.4029 7.543C49.4029 7.909 49.4839 8.236 49.6459 8.524C49.8139 8.806 50.0419 9.028 50.3299 9.19C50.6239 9.346 50.9539 9.424 51.3199 9.424Z" fill="#4A4A4A"/>
</svg>
